#!OML:ASF F:\VICON\USERDATA\INSTALL\rory3\rory3.ASF
:FULLY-SPECIFIED
:DEGREES
330
root 0.792196 17.8251 -2.72438 -0.37925 -56.41 4.22827
lowerback 3.7907 1.91437 -5.78923
upperback 1.40221 2.30378 -1.17674
thorax -0.859733 1.13519 1.92415
lowerneck -7.56871 -2.02035 -5.20617
upperneck 24.8453 -2.60339 1.31751
head 9.11186 -1.6903 1.0558
rclavicle -1.40143e-014 1.23246e-014
rhumerus -34.7076 -5.42949 -80.5684
rradius 30.1991
rwrist -3.30905
rhand -10.3902 17.1686
rfingers 7.12502
rthumb 15.6078 -12.2217
lclavicle -1.40143e-014 1.23246e-014
lhumerus -30.4566 -15.6838 87.3813
lradius 54.4851
lwrist 18.9762
lhand -3.68007 28.5732
lfingers 7.12502
lthumb 22.0612 57.3349
rfemur -31.924 1.8826 16.9406
rtibia 29.1174
rfoot -12.5426 -10.7517
rtoes -16.1947
lfemur -0.34013 -4.2322 -28.8778
ltibia 16.3794
lfoot -18.9951 9.90041
ltoes -13.3478
331
root 0.708338 17.828 -2.67809 -0.105817 -56.1075 4.2214
lowerback 3.65299 1.85354 -5.72916
upperback 1.31279 2.23295 -1.17412
thorax -0.867423 1.10241 1.89984
lowerneck -7.44305 -2.07914 -5.10569
upperneck 24.688 -2.69386 1.26873
head 9.03427 -1.72591 1.01456
rclavicle 6.98231e-014 1.59028e-015
rhumerus -34.8711 -5.75756 -80.4614
rradius 30.1309
rwrist -3.12571
rhand -10.296 17.0586
rfingers 7.12502
rthumb 15.6986 -12.3247
lclavicle 6.98231e-014 1.59028e-015
lhumerus -30.6064 -15.9082 87.4604
lradius 54.4455
lwrist 18.9893
lhand -3.83419 28.3052
lfingers 7.12502
lthumb 21.9132 57.0842
rfemur -31.8839 2.13435 16.763
rtibia 27.2853
rfoot -12.5264 -11.3884
rtoes -16.5064
lfemur 0.00140789 -4.32515 -28.8332
ltibia 15.6973
lfoot -18.7093 9.94508
ltoes -14.6244
332
root 0.611547 17.8221 -2.61815 -0.267378 -56.1919 4.22649
lowerback 3.73422 1.89749 -5.68049
upperback 1.33871 2.289 -1.12336
thorax -0.890596 1.13054 1.9199
lowerneck -7.3518 -2.09898 -5.09838
upperneck 24.6632 -2.71032 1.19098
head 9.00825 -1.74133 0.986092
rclavicle 9.09937e-014 -1.31198e-014
rhumerus -35.144 -5.77818 -80.4079
rradius 30.0931
rwrist -2.87848
rhand -10.4778 16.9809
rfingers 7.12502
rthumb 15.5235 -12.4159
lclavicle 9.09937e-014 -1.31198e-014
lhumerus -30.8749 -15.9478 87.5598
lradius 54.3139
lwrist 18.9842
lhand -3.97883 27.689
lfingers 7.12502
lthumb 21.7743 56.4842
rfemur -31.3804 2.53571 16.67
rtibia 25.5198
rfoot -12.6392 -11.7534
rtoes -17.8178
lfemur 0.852502 -4.27201 -28.8756
ltibia 15.1743
lfoot -18.7494 10.2269
ltoes -15.3843
333
root 0.521233 17.8222 -2.56614 -0.116554 -56.0397 4.16777
lowerback 3.68693 1.88801 -5.57794
upperback 1.30813 2.28354 -1.09414
thorax -0.892612 1.12892 1.8941
lowerneck -7.37293 -2.16568 -5.06731
upperneck 24.6585 -2.79837 1.15671
head 9.01281 -1.78237 0.9601
rclavicle 5.79954e-014 1.90833e-014
rhumerus -35.3218 -5.86637 -80.4262
rradius 30.0508
rwrist -2.65041
rhand -10.8168 16.7074
rfingers 7.12502
rthumb 15.1969 -12.7145
lclavicle 5.79954e-014 1.90833e-014
lhumerus -30.9819 -16.0641 87.639
lradius 54.0819
lwrist 18.9624
lhand -3.87692 27.3897
lfingers 7.12502
lthumb 21.8721 56.1735
rfemur -31.1261 2.97636 16.4716
rtibia 23.8604
rfoot -12.9395 -12.2258
rtoes -17.1857
lfemur 1.26599 -4.25352 -28.8294
ltibia 14.8211
lfoot -18.6303 10.348
ltoes -16.6697
334
root 0.430056 17.8197 -2.5129 0.0585183 -55.9142 4.06123
lowerback 3.64589 1.88486 -5.43308
upperback 1.26947 2.28762 -1.04883
thorax -0.906193 1.13258 1.86041
lowerneck -7.25437 -2.20336 -4.98162
upperneck 24.5458 -2.84086 1.03741
head 8.94995 -1.80509 0.902398
rclavicle 1.15444e-013 -2.50469e-014
rhumerus -35.4878 -5.95134 -80.3625
rradius 29.9704
rwrist -2.69943
rhand -10.7039 16.6444
rfingers 7.12502
rthumb 15.3057 -12.7692
lclavicle 1.15444e-013 -2.50469e-014
lhumerus -31.1735 -16.2137 87.7554
lradius 53.9631
lwrist 19.0046
lhand -3.70714 27.499
lfingers 7.12502
lthumb 22.0352 56.2637
rfemur -30.8882 3.11695 16.4195
rtibia 22.3654
rfoot -13.1994 -12.451
rtoes -16.6228
lfemur 1.71812 -4.23289 -28.7612
ltibia 14.3947
lfoot -18.4837 10.4856
ltoes -17.9724
335
root 0.334037 17.8165 -2.45714 0.178197 -55.9 3.95357
lowerback 3.58317 1.91486 -5.26557
upperback 1.26476 2.33879 -1.01548
thorax -0.87462 1.15795 1.80089
lowerneck -7.22853 -2.2478 -4.93522
upperneck 24.5071 -2.89421 0.968353
head 8.93182 -1.83193 0.866199
rclavicle -7.72278e-014 5.96354e-015
rhumerus -35.6103 -6.17245 -80.2188
rradius 29.8017
rwrist -2.71581
rhand -10.2755 16.8532
rfingers 7.12502
rthumb 15.7183 -12.5284
lclavicle -7.72278e-014 5.96354e-015
lhumerus -31.3766 -16.347 87.8347
lradius 53.8057
lwrist 19.072
lhand -3.53343 27.7129
lfingers 7.12502
lthumb 22.2019 56.4578
rfemur -30.6273 3.08013 16.5088
rtibia 21.0514
rfoot -13.1084 -12.4716
rtoes -18.0245
lfemur 2.27668 -4.21967 -28.7307
ltibia 14.0205
lfoot -18.4664 10.6837
ltoes -18.4763
336
root 0.237368 17.816 -2.4011 0.299754 -55.8481 3.8442
lowerback 3.53649 1.95597 -5.05836
upperback 1.27033 2.4046 -1.01028
thorax -0.839429 1.19034 1.68938
lowerneck -7.31964 -2.32037 -4.86874
upperneck 24.5514 -2.99241 0.932926
head 8.96575 -1.8748 0.831872
rclavicle 6.05299e-014 4.37326e-015
rhumerus -35.7032 -6.49167 -80.1052
rradius 29.5944
rwrist -2.48469
rhand -10.1241 16.9375
rfingers 7.12502
rthumb 15.8641 -12.4326
lclavicle 6.05299e-014 4.37326e-015
lhumerus -31.4869 -16.5377 87.9062
lradius 53.4647
lwrist 19.1147
lhand -3.53051 27.9301
lfingers 7.12502
lthumb 22.2047 56.6747
rfemur -30.422 3.45934 16.4415
rtibia 20.0366
rfoot -13.0617 -12.8184
rtoes -19.0673
lfemur 2.94794 -4.26385 -28.6929
ltibia 13.518
lfoot -18.498 10.7731
ltoes -18.9729
337
root 0.142698 17.8071 -2.34785 0.382128 -55.7354 3.79608
lowerback 3.53798 1.93001 -4.93776
upperback 1.25652 2.37502 -0.956912
thorax -0.850019 1.17648 1.67814
lowerneck -7.35529 -2.33791 -4.9099
upperneck 24.5368 -3.00674 0.932721
head 8.96877 -1.88432 0.836969
rclavicle 2.12948e-014 -9.34288e-015
rhumerus -35.7787 -6.60741 -80.0059
rradius 29.4039
rwrist -2.27497
rhand -10.1733 16.8701
rfingers 7.12502
rthumb 15.8167 -12.5038
lclavicle 2.12948e-014 -9.34288e-015
lhumerus -31.6002 -16.5216 88.0057
lradius 52.9991
lwrist 19.1154
lhand -3.7638 27.9726
lfingers 7.12502
lthumb 21.9808 56.7437
rfemur -30.3262 3.84903 16.3206
rtibia 19.3388
rfoot -13.1951 -13.1792
rtoes -19.1406
lfemur 3.67106 -4.39888 -28.6709
ltibia 12.9038
lfoot -18.6041 10.7387
ltoes -18.9438
